<?xml version="1.0" standalone="no"?>
<!DOCTYPE svg PUBLIC "-//W3C//DTD SVG 20010904//EN"
 "http://www.w3.org/TR/2001/REC-SVG-20010904/DTD/svg10.dtd">
<svg version="1.0" xmlns="http://www.w3.org/2000/svg"
 width="512.000000pt" height="512.000000pt" viewBox="0 0 512.000000 512.000000"
 preserveAspectRatio="xMidYMid meet">
<metadata>
Created by potrace 1.14, written by Peter Selinger 2001-2017
</metadata>
<g transform="translate(0.000000,512.000000) scale(0.100000,-0.100000)"
fill="#000000" stroke="none">
<path d="M2493 5088 c-46 -25 -65 -49 -79 -102 -14 -53 0 -99 43 -142 37 -37
57 -41 237 -49 72 -4 132 -8 135 -10 3 -1 35 -6 71 -10 36 -4 68 -9 71 -11 3
-2 20 -6 38 -9 326 -57 686 -227 969 -455 215 -173 409 -405 545 -651 39 -71
150 -319 145 -325 -5 -5 -458 259 -748 437 -56 34 -253 149 -256 149 -2 0 4
-19 12 -42 52 -148 -21 -314 -172 -389 l-49 -24 -672 -3 c-520 -2 -673 -5
-674 -15 0 -7 -3 -21 -6 -32 -3 -11 -7 -131 -10 -267 l-5 -248 453 -1 c250 -1
457 -1 461 0 4 0 36 -8 71 -19 218 -67 288 -344 132 -518 -27 -30 -66 -59 -97
-73 l-53 -24 -482 -3 -483 -3 0 -463 c0 -380 -3 -471 -15 -513 -41 -139 -181
-231 -330 -217 l-60 5 195 -111 c107 -62 213 -122 235 -135 73 -41 538 -306
674 -384 l133 -76 -83 -11 c-95 -13 -442 -15 -516 -4 -26 4 -75 11 -108 15
-32 3 -62 8 -65 10 -3 2 -21 6 -40 9 -135 22 -359 99 -535 186 -583 286 -1017
817 -1179 1444 -30 112 -34 132 -42 201 -4 28 -8 53 -10 56 -7 13 -18 184 -18
304 0 141 11 292 29 380 2 11 9 45 14 75 67 336 242 701 469 971 42 51 87 104
99 119 70 86 24 226 -82 246 -89 16 -128 -11 -273 -190 -247 -306 -412 -647
-504 -1036 -26 -111 -27 -117 -34 -170 -3 -25 -7 -56 -10 -70 -31 -192 -23
-551 17 -770 17 -91 20 -104 25 -122 3 -10 7 -30 10 -45 3 -16 19 -73 36 -128
191 -625 610 -1151 1178 -1477 258 -148 592 -266 858 -303 20 -3 46 -7 57 -10
88 -18 421 -25 575 -12 239 20 521 89 740 182 884 372 1484 1190 1568 2135 12
140 3 553 -13 580 -1 3 -6 28 -9 55 -4 28 -14 84 -22 125 -9 41 -18 85 -20 98
-9 47 -75 254 -105 329 -96 242 -237 483 -392 668 -139 165 -281 300 -439 415
-46 33 -87 64 -93 68 -34 25 -194 117 -270 155 -80 40 -229 105 -255 112 -3 0
-48 15 -100 32 -84 28 -153 48 -200 58 -125 27 -162 34 -200 40 -25 3 -56 8
-70 10 -58 9 -157 16 -264 20 -101 3 -120 0 -153 -17z"/>
<path d="M1855 5006 c-110 -49 -119 -209 -16 -270 130 -75 283 65 215 197 -22
41 -36 55 -78 72 -43 18 -81 18 -121 1z"/>
<path d="M1243 4737 c-122 -84 -79 -262 68 -281 48 -6 114 28 141 73 28 45 28
122 1 160 -53 71 -145 92 -210 48z"/>
</g>
</svg>
